<svg xmlns="http://www.w3.org/2000/svg" style="display:none">
  <symbol id="arrow-down" viewBox="0 0 24 24"><path d="M12 5v14M6 13l6 6 6-6"/></symbol>
  <symbol id="arrow-up" viewBox="0 0 24 24"><path d="M12 19V5M6 11l6-6 6 6"/></symbol>
  <symbol id="whatsapp" viewBox="0 0 24 24"><path d="M20.5 11.7a8.5 8.5 0 0 1-12.6 7.5L3.5 20.5l1.4-4.2A8.5 8.5 0 1 1 20.5 11.7Z"/><path d="M8.2 7.9c.3-.6.6-.6.9-.6h.4c.2 0 .4.1.5.4l.8 1.9c.1.3.1.5-.1.7l-.6.7c-.2.2-.2.4-.1.6.5 1.1 1.4 2 2.5 2.6.2.1.4.1.6-.1l.8-1c.2-.2.4-.3.7-.2l1.8.9c.3.1.4.3.4.5 0 .4-.2 1.4-.7 1.9-.5.5-1.3.8-2.3.6-1.1-.2-2.5-.7-4.1-2.1-1.9-1.7-3.1-3.8-3.4-5.1-.3-1.3.3-2.1.7-2.5.4-.4.8-.5 1.2-.5Z"/></symbol>
  <symbol id="mail" viewBox="0 0 24 24"><rect x="3" y="5" width="18" height="14" rx="2"/><path d="m4 7 8 6 8-6"/></symbol>
  <symbol id="instagram" viewBox="0 0 24 24"><rect x="3" y="3" width="18" height="18" rx="5"/><circle cx="12" cy="12" r="4"/><circle cx="17.5" cy="6.5" r=".7" fill="currentColor" stroke="none"/></symbol>
  <symbol id="tag" viewBox="0 0 24 24"><path d="M20 13 13 20 4 11V4h7Z"/><circle cx="8.5" cy="8.5" r="1"/></symbol>
  <symbol id="chart" viewBox="0 0 24 24"><path d="M4 19V5M4 19h16M8 15v-4M12 15V7M16 15v-6M20 15V4"/></symbol>
  <symbol id="wallet" viewBox="0 0 24 24"><path d="M4 7h14a2 2 0 0 1 2 2v9H4a2 2 0 0 1-2-2V6a2 2 0 0 1 2-2h12"/><path d="M15 11h7v4h-7a2 2 0 0 1 0-4Z"/></symbol>
  <symbol id="trend" viewBox="0 0 24 24"><path d="m3 17 6-6 4 4 8-9"/><path d="M15 6h6v6"/></symbol>
  <symbol id="balance" viewBox="0 0 24 24"><path d="M12 3v18M5 6h14M4 6l-3 6h6Zm13 0-3 6h6ZM8 21h8"/></symbol>
  <symbol id="receipt" viewBox="0 0 24 24"><path d="M6 3h12v18l-3-2-3 2-3-2-3 2Z"/><path d="M9 8h6M9 12h6M9 16h3"/></symbol>
  <symbol id="gauge" viewBox="0 0 24 24"><path d="M4.2 18a9 9 0 1 1 15.6 0"/><path d="m12 12 4-3"/><circle cx="12" cy="12" r="1"/></symbol>
  <symbol id="calendar" viewBox="0 0 24 24"><rect x="3" y="5" width="18" height="16" rx="2"/><path d="M8 3v4M16 3v4M3 10h18"/></symbol>
  <symbol id="target" viewBox="0 0 24 24"><circle cx="12" cy="12" r="9"/><circle cx="12" cy="12" r="5"/><circle cx="12" cy="12" r="1"/></symbol>
  <symbol id="coins" viewBox="0 0 24 24"><ellipse cx="8" cy="6" rx="5" ry="3"/><path d="M3 6v4c0 1.7 2.2 3 5 3M13 6v3"/><ellipse cx="16" cy="14" rx="5" ry="3"/><path d="M11 14v4c0 1.7 2.2 3 5 3s5-1.3 5-3v-4"/></symbol>
  <symbol id="alert" viewBox="0 0 24 24"><path d="M12 3 2.5 20h19Z"/><path d="M12 9v5M12 17h.01"/></symbol>
  <symbol id="megaphone" viewBox="0 0 24 24"><path d="m3 11 15-6v14L3 13Z"/><path d="M7 14v6h4l-1-7"/></symbol>
  <symbol id="book" viewBox="0 0 24 24"><path d="M4 5a3 3 0 0 1 3-3h5v18H7a3 3 0 0 0-3 2Z"/><path d="M20 5a3 3 0 0 0-3-3h-5v18h5a3 3 0 0 1 3 2Z"/></symbol>
  <symbol id="data" viewBox="0 0 24 24"><ellipse cx="12" cy="5" rx="8" ry="3"/><path d="M4 5v7c0 1.7 3.6 3 8 3s8-1.3 8-3V5"/><path d="M4 12v7c0 1.7 3.6 3 8 3s8-1.3 8-3v-7"/></symbol>
  <symbol id="code" viewBox="0 0 24 24"><path d="m8 7-5 5 5 5M16 7l5 5-5 5M14 4l-4 16"/></symbol>
  <symbol id="quote" viewBox="0 0 24 24"><path d="M9 11H5a4 4 0 0 1 4-4V4a7 7 0 0 0-7 7v7h7ZM22 11h-4a4 4 0 0 1 4-4V4a7 7 0 0 0-7 7v7h7Z"/></symbol>
</svg>
